<svg width="22" height="36" viewBox="0 0 22 36" fill="none" xmlns="http://www.w3.org/2000/svg">
<g clip-path="url(#clip0_84_528)">
<path d="M12.0624 4.17157L9.34319 6.89079L2.35124 13.8827C0.0808368 16.1531 0.0808369 19.8474 2.35124 22.1178L9.34319 29.1098L12.0624 31.8284C14.3328 34.0989 18.0271 34.0989 20.2975 31.8284C21.4324 30.6935 22.0004 29.2021 22.0004 27.7112C22.0004 26.2203 21.4324 24.7288 20.2975 23.5939L14.7036 18L20.2975 12.4067C22.5679 10.1363 22.5679 6.44198 20.2975 4.17157C18.0271 1.90117 14.3328 1.90117 12.0624 4.17157ZM19.0544 24.8365C20.6392 26.4219 20.6392 29.0005 19.0544 30.5858C17.4695 32.1707 14.8904 32.1707 13.3056 30.5858L10.5863 27.8666C9.81836 27.0987 9.39593 26.078 9.39593 24.992C9.39593 23.9065 9.81836 22.8853 10.5863 22.1178L13.461 19.2432L19.0544 24.8365ZM9.34319 20.8747C8.26045 21.9574 7.65727 23.3912 7.63915 24.9189L3.59438 20.8747C2.00955 19.2898 2.00955 16.7107 3.59438 15.1259L7.63915 11.0811C7.65727 12.6094 8.26045 14.0431 9.34319 15.1259L12.2179 18L9.34319 20.8747ZM19.0544 5.41471C20.6392 6.99955 20.6392 9.57869 19.0544 11.1635L13.461 16.7574L10.5863 13.8827C9.81836 13.1148 9.39593 12.0941 9.39593 11.0081C9.39593 9.92202 9.81836 8.90135 10.5863 8.13393L13.3055 5.41471C14.8904 3.82988 17.4695 3.82988 19.0544 5.41471Z" fill="#7C70FB"/>
</g>
<defs>
<clipPath id="clip0_84_528">
<rect width="36" height="22" fill="white" transform="translate(1.57361e-06 36) rotate(-90)"/>
</clipPath>
</defs>
</svg>
