<svg width="68" height="68" viewBox="0 0 68 68" fill="none" xmlns="http://www.w3.org/2000/svg">
<g filter="url(#filter0_d_1_4604)">
<rect x="2" y="1" width="64" height="64" rx="10" fill="white" shape-rendering="crispEdges"/>
<rect x="2.5" y="1.5" width="63" height="63" rx="9.5" stroke="#EAECF0" shape-rendering="crispEdges"/>
<path d="M34 19.6667C37.3351 23.3179 39.2304 28.0561 39.3334 33.0001C39.2304 37.944 37.3351 42.6823 34 46.3334M34 19.6667C30.665 23.3179 28.7697 28.0561 28.6667 33.0001C28.7697 37.944 30.665 42.6823 34 46.3334M34 19.6667C26.6362 19.6667 20.6667 25.6363 20.6667 33.0001C20.6667 40.3639 26.6362 46.3334 34 46.3334M34 19.6667C41.3638 19.6667 47.3334 25.6363 47.3334 33.0001C47.3334 40.3639 41.3638 46.3334 34 46.3334M21.3334 29.0001H46.6667M21.3334 37.0001H46.6667" stroke="#344054" stroke-width="2.4" stroke-linecap="round" stroke-linejoin="round"/>
</g>
<defs>
<filter id="filter0_d_1_4604" x="0" y="0" width="68" height="68" filterUnits="userSpaceOnUse" color-interpolation-filters="sRGB">
<feFlood flood-opacity="0" result="BackgroundImageFix"/>
<feColorMatrix in="SourceAlpha" type="matrix" values="0 0 0 0 0 0 0 0 0 0 0 0 0 0 0 0 0 0 127 0" result="hardAlpha"/>
<feOffset dy="1"/>
<feGaussianBlur stdDeviation="1"/>
<feComposite in2="hardAlpha" operator="out"/>
<feColorMatrix type="matrix" values="0 0 0 0 0.0627451 0 0 0 0 0.0941176 0 0 0 0 0.156863 0 0 0 0.05 0"/>
<feBlend mode="normal" in2="BackgroundImageFix" result="effect1_dropShadow_1_4604"/>
<feBlend mode="normal" in="SourceGraphic" in2="effect1_dropShadow_1_4604" result="shape"/>
</filter>
</defs>
</svg>
