<svg width="68" height="68" viewBox="0 0 68 68" fill="none" xmlns="http://www.w3.org/2000/svg">
<g filter="url(#filter0_d_1_4628)">
<rect x="2" y="1" width="64" height="64" rx="10" fill="white" shape-rendering="crispEdges"/>
<rect x="2.5" y="1.5" width="63" height="63" rx="9.5" stroke="#EAECF0" shape-rendering="crispEdges"/>
<path d="M34 37.0001C29.5817 37.0001 26 33.4184 26 29.0001V21.5927C26 21.0409 26 20.765 26.0804 20.5441C26.2152 20.1737 26.507 19.882 26.8773 19.7472C27.0983 19.6667 27.3741 19.6667 27.9259 19.6667H40.0741C40.6259 19.6667 40.9018 19.6667 41.1227 19.7472C41.4931 19.882 41.7848 20.1737 41.9196 20.5441C42 20.765 42 21.0409 42 21.5927V29.0001C42 33.4184 38.4183 37.0001 34 37.0001ZM34 37.0001V41.0001M42 22.3334H45.3334C45.9546 22.3334 46.2652 22.3334 46.5103 22.4349C46.837 22.5702 47.0965 22.8298 47.2319 23.1565C47.3334 23.4015 47.3334 23.7122 47.3334 24.3334V25.0001C47.3334 26.24 47.3334 26.86 47.1971 27.3687C46.8272 28.7491 45.749 29.8272 44.3686 30.1971C43.86 30.3334 43.24 30.3334 42 30.3334M26 22.3334H22.6667C22.0454 22.3334 21.7348 22.3334 21.4898 22.4349C21.1631 22.5702 20.9035 22.8298 20.7682 23.1565C20.6667 23.4015 20.6667 23.7122 20.6667 24.3334V25.0001C20.6667 26.24 20.6667 26.86 20.803 27.3687C21.1729 28.7491 22.251 29.8272 23.6314 30.1971C24.1401 30.3334 24.7601 30.3334 26 30.3334M27.9259 46.3334H40.0741C40.4014 46.3334 40.6667 46.0681 40.6667 45.7408C40.6667 43.1226 38.5442 41.0001 35.9259 41.0001H32.0741C29.4559 41.0001 27.3334 43.1226 27.3334 45.7408C27.3334 46.0681 27.5987 46.3334 27.9259 46.3334Z" stroke="#344054" stroke-width="2.4" stroke-linecap="round" stroke-linejoin="round"/>
</g>
<defs>
<filter id="filter0_d_1_4628" x="0" y="0" width="68" height="68" filterUnits="userSpaceOnUse" color-interpolation-filters="sRGB">
<feFlood flood-opacity="0" result="BackgroundImageFix"/>
<feColorMatrix in="SourceAlpha" type="matrix" values="0 0 0 0 0 0 0 0 0 0 0 0 0 0 0 0 0 0 127 0" result="hardAlpha"/>
<feOffset dy="1"/>
<feGaussianBlur stdDeviation="1"/>
<feComposite in2="hardAlpha" operator="out"/>
<feColorMatrix type="matrix" values="0 0 0 0 0.0627451 0 0 0 0 0.0941176 0 0 0 0 0.156863 0 0 0 0.05 0"/>
<feBlend mode="normal" in2="BackgroundImageFix" result="effect1_dropShadow_1_4628"/>
<feBlend mode="normal" in="SourceGraphic" in2="effect1_dropShadow_1_4628" result="shape"/>
</filter>
</defs>
</svg>
