<svg width="98" height="26" viewBox="0 0 98 26" fill="none" xmlns="http://www.w3.org/2000/svg">
<path d="M24.489 25.8053H1.0005C0.733792 25.8035 0.478624 25.6959 0.291083 25.5062C0.103542 25.3166 -0.00113572 25.0606 9.29562e-06 24.7939V1.01238C-0.00113572 0.745676 0.103542 0.489668 0.291083 0.30003C0.478624 0.110393 0.733792 0.0027962 1.0005 0.000976562H24.489C24.7557 0.0027962 25.0109 0.110393 25.1984 0.30003C25.386 0.489668 25.4907 0.745676 25.4895 1.01238V24.7939C25.4907 25.0606 25.386 25.3166 25.1984 25.5062C25.0109 25.6959 24.7557 25.8035 24.489 25.8053ZM18.0281 4.81608C17.9615 4.81664 17.8957 4.83042 17.8345 4.8564C17.7732 4.88238 17.7177 4.91984 17.6711 4.96729C17.6244 5.01473 17.5876 5.07193 17.5627 5.13361C17.5378 5.1953 17.5252 5.26029 17.5257 5.32682V7.53108C17.525 7.66516 17.5775 7.79349 17.6717 7.88894C17.7659 7.98439 17.894 8.03901 18.0281 8.04015H20.2069C20.341 8.03901 20.4692 7.98439 20.5633 7.88894C20.6575 7.79349 20.71 7.66516 20.7093 7.53108V5.32682C20.7098 5.26029 20.6973 5.1953 20.6723 5.13361C20.6474 5.07193 20.6106 5.01473 20.5639 4.96729C20.5173 4.91984 20.4618 4.88238 20.4006 4.8564C20.3393 4.83042 20.2735 4.81664 20.2069 4.81608H18.0281Z" fill="#EAEEF0"/>
<path d="M44.1111 0H33.3715C33.1045 0.00181934 32.8492 0.109575 32.6616 0.299585C32.474 0.489594 32.3695 0.746311 32.3711 1.01332V24.7927C32.3695 25.0597 32.474 25.3164 32.6616 25.5064C32.8492 25.6964 33.1045 25.8042 33.3715 25.806H44.1111C44.3781 25.8042 44.6335 25.6964 44.8211 25.5064C45.0087 25.3164 45.1131 25.0597 45.1115 24.7927V1.01332C45.1131 0.746311 45.0087 0.489594 44.8211 0.299585C44.6335 0.109575 44.3781 0.00181934 44.1111 0Z" fill="#EAEEF0"/>
<path d="M76.4822 25.8053H52.9936C52.7269 25.8035 52.4718 25.6959 52.2842 25.5062C52.0967 25.3166 51.992 25.0606 51.9931 24.7939V1.01238C51.992 0.745676 52.0967 0.489668 52.2842 0.30003C52.4718 0.110393 52.7269 0.0027962 52.9936 0.000976562H76.4822C76.7489 0.0027962 77.004 0.110393 77.1916 0.30003C77.3791 0.489668 77.4838 0.745676 77.4826 1.01238V24.7939C77.4838 25.0606 77.3791 25.3166 77.1916 25.5062C77.004 25.6959 76.7489 25.8035 76.4822 25.8053ZM63.6583 17.7191C63.5246 17.7209 63.397 17.7762 63.3036 17.872C63.2103 17.9678 63.1586 18.096 63.1602 18.2298V20.4358C63.1593 20.5688 63.2113 20.6971 63.3047 20.7919C63.3981 20.8868 63.5253 20.9403 63.6583 20.9415H65.8372C65.9708 20.9408 66.0988 20.8867 66.1929 20.7919C66.2871 20.6971 66.3398 20.5694 66.3395 20.4358V18.2298C66.3401 18.1633 66.3275 18.0983 66.3026 18.0366C66.2776 17.9749 66.2409 17.9177 66.1942 17.8703C66.1476 17.8228 66.0921 17.7854 66.0308 17.7594C65.9696 17.7334 65.9037 17.7196 65.8372 17.7191H63.6583Z" fill="#EAEEF0"/>
<path d="M96.1087 25.8053H85.3648C85.0981 25.8035 84.8429 25.6959 84.6554 25.5062C84.4679 25.3166 84.3632 25.0606 84.3643 24.7939V1.01238C84.3632 0.745676 84.4679 0.489668 84.6554 0.30003C84.8429 0.110393 85.0981 0.0027962 85.3648 0.000976562H96.1087C96.3754 0.0027962 96.6304 0.110393 96.8179 0.30003C97.0054 0.489668 97.1101 0.745676 97.109 1.01238V24.7939C97.1101 25.0606 97.0054 25.3166 96.8179 25.5062C96.6304 25.6959 96.3754 25.8035 96.1087 25.8053ZM89.6478 4.81608C89.5812 4.81664 89.5154 4.83042 89.4541 4.8564C89.3929 4.88238 89.3374 4.91984 89.2907 4.96729C89.2441 5.01473 89.2071 5.07193 89.1822 5.13361C89.1572 5.1953 89.1448 5.26029 89.1454 5.32682V7.53108C89.1447 7.66516 89.1972 7.79349 89.2914 7.88894C89.3855 7.98439 89.5137 8.03901 89.6478 8.04015H91.8266C91.9607 8.03901 92.0888 7.98439 92.183 7.88894C92.2772 7.79349 92.3296 7.66516 92.3289 7.53108V5.32682C92.3295 5.26029 92.3169 5.1953 92.292 5.13361C92.267 5.07193 92.2303 5.01473 92.1836 4.96729C92.137 4.91984 92.0813 4.88238 92.02 4.8564C91.9588 4.83042 91.8931 4.81664 91.8266 4.81608H89.6478Z" fill="#EAEEF0"/>
</svg>
