<svg width="68" height="68" viewBox="0 0 68 68" fill="none" xmlns="http://www.w3.org/2000/svg">
<g filter="url(#filter0_d_1_4620)">
<rect x="2" y="1" width="64" height="64" rx="10" fill="white" shape-rendering="crispEdges"/>
<rect x="2.5" y="1.5" width="63" height="63" rx="9.5" stroke="#EAECF0" shape-rendering="crispEdges"/>
<path d="M27.3334 46.3334V31.6667M20.6667 34.3334V43.6667C20.6667 45.1395 21.8606 46.3334 23.3334 46.3334H41.235C43.2093 46.3334 44.8883 44.893 45.1885 42.9416L46.6244 33.6083C46.9972 31.1853 45.1225 29.0001 42.6709 29.0001H38C37.2636 29.0001 36.6667 28.4031 36.6667 27.6667V22.9545C36.6667 21.1387 35.1947 19.6667 33.3789 19.6667C32.9458 19.6667 32.5533 19.9218 32.3774 20.3176L27.6853 30.8749C27.4713 31.3564 26.9938 31.6667 26.4669 31.6667H23.3334C21.8606 31.6667 20.6667 32.8607 20.6667 34.3334Z" stroke="#344054" stroke-width="2.4" stroke-linecap="round" stroke-linejoin="round"/>
</g>
<defs>
<filter id="filter0_d_1_4620" x="0" y="0" width="68" height="68" filterUnits="userSpaceOnUse" color-interpolation-filters="sRGB">
<feFlood flood-opacity="0" result="BackgroundImageFix"/>
<feColorMatrix in="SourceAlpha" type="matrix" values="0 0 0 0 0 0 0 0 0 0 0 0 0 0 0 0 0 0 127 0" result="hardAlpha"/>
<feOffset dy="1"/>
<feGaussianBlur stdDeviation="1"/>
<feComposite in2="hardAlpha" operator="out"/>
<feColorMatrix type="matrix" values="0 0 0 0 0.0627451 0 0 0 0 0.0941176 0 0 0 0 0.156863 0 0 0 0.05 0"/>
<feBlend mode="normal" in2="BackgroundImageFix" result="effect1_dropShadow_1_4620"/>
<feBlend mode="normal" in="SourceGraphic" in2="effect1_dropShadow_1_4620" result="shape"/>
</filter>
</defs>
</svg>
