<svg width="48" height="48" viewBox="0 0 48 48" fill="none" xmlns="http://www.w3.org/2000/svg">
<path d="M23.795 30.4585H23.7938C20.1244 30.4585 17.1498 33.4331 17.1498 37.1025V37.1037C17.1498 40.7731 20.1244 43.7477 23.7938 43.7477H23.795C27.4643 43.7477 30.439 40.7731 30.439 37.1037V37.1025C30.439 33.4331 27.4643 30.4585 23.795 30.4585Z" stroke="#667985" stroke-width="2" stroke-miterlimit="10"/>
<path d="M9.41055 13.0093C12.283 10.1368 16.9401 10.1368 19.8114 13.0093L21.5802 14.7781L23.7936 16.9903L26.192 14.5919L27.7758 13.0081C30.6482 10.1356 35.3054 10.1356 38.1766 13.0081L31.6319 6.4633L29.3474 4.17882C26.2802 1.11162 21.307 1.11162 18.2398 4.17882L9.40076 13.0179" stroke="#667985" stroke-width="2" stroke-miterlimit="10"/>
<path d="M43.8664 18.6991L43.3739 18.2067L40.0422 14.8749L38.1766 13.0093C35.3042 10.1369 30.647 10.1369 27.7758 13.0093L26.192 14.5931L23.7936 16.9915L34.6844 27.8823C37.2199 30.4179 41.3308 30.4179 43.8664 27.8823C46.402 25.3467 46.402 21.2359 43.8664 18.7003V18.6991Z" stroke="#667985" stroke-width="2" stroke-miterlimit="10"/>
<path d="M21.5814 14.7796L19.8126 13.0108C16.9401 10.1383 12.283 10.1383 9.41176 13.0108L7.72994 14.6926L3.722 18.7005C1.18642 21.2361 1.18642 25.347 3.722 27.8825C6.25759 30.4181 10.3684 30.4181 12.904 27.8825L13.3964 27.3901L23.7948 16.993L21.5814 14.7808V14.7796Z" stroke="#667985" stroke-width="2" stroke-miterlimit="10"/>
</svg>
