<svg width="360" height="142" viewBox="0 0 360 142" fill="none" xmlns="http://www.w3.org/2000/svg">
<mask id="mask0_1_4825" style="mask-type:alpha" maskUnits="userSpaceOnUse" x="-194" y="0" width="714" height="142">
<path opacity="0.32" d="M-134.568 87.502C-128.33 81.2634 -118.178 81.2634 -111.939 87.502L-92.7275 106.715L-85.2559 114.187C-79.0173 120.425 -79.0173 130.576 -85.2559 136.814C-91.4945 143.053 -101.645 143.053 -107.884 136.814L-123.253 121.444L-138.624 136.814C-141.743 139.933 -145.841 141.494 -149.937 141.494C-154.034 141.494 -158.132 139.933 -161.251 136.814C-167.489 130.576 -167.489 120.425 -161.251 114.187L-153.78 106.715L-134.568 87.502ZM8.43164 87.502C14.6702 81.2634 24.822 81.2634 31.0605 87.502L50.2725 106.715L57.7441 114.187C63.9827 120.425 63.9827 130.576 57.7441 136.814C51.5055 143.053 41.3548 143.053 35.1162 136.814L19.7471 121.444L4.37598 136.814C1.25743 139.933 -2.84084 141.494 -6.9375 141.494C-11.0341 141.494 -15.1325 139.933 -18.251 136.814C-24.4893 130.576 -24.4893 120.425 -18.251 114.187L-10.7803 106.715L8.43164 87.502ZM151.924 87.502C158.162 81.2634 168.314 81.2634 174.553 87.502L193.765 106.715L201.236 114.187C207.475 120.425 207.475 130.576 201.236 136.814C194.998 143.053 184.847 143.053 178.608 136.814L163.239 121.444L147.868 136.814C144.75 139.933 140.651 141.494 136.555 141.494C132.458 141.494 128.36 139.933 125.241 136.814C119.003 130.576 119.003 120.425 125.241 114.187L132.712 106.715L151.924 87.502ZM294.436 87.502C300.674 81.2634 310.826 81.2634 317.064 87.502L336.276 106.715L343.748 114.187C349.987 120.425 349.987 130.576 343.748 136.814C337.509 143.053 327.359 143.053 321.12 136.814L305.751 121.444L290.38 136.814C287.261 139.933 283.163 141.494 279.066 141.494C274.97 141.494 270.871 139.933 267.753 136.814C261.515 130.576 261.515 120.425 267.753 114.187L275.224 106.715L294.436 87.502ZM437.438 87.502C443.676 81.2634 453.828 81.2634 460.066 87.502L479.278 106.715L486.75 114.187C492.989 120.425 492.989 130.576 486.75 136.814C480.511 143.053 470.361 143.053 464.122 136.814L448.753 121.444L433.382 136.814C430.263 139.933 426.165 141.494 422.068 141.494C417.972 141.494 413.873 139.933 410.755 136.814C404.517 130.576 404.517 120.425 410.755 114.187L418.226 106.715L437.438 87.502ZM-142.466 106.859C-145.45 106.859 -148.254 108.021 -150.364 110.131L-157.836 117.603C-162.191 121.957 -162.191 129.044 -157.836 133.398C-153.48 137.753 -146.394 137.753 -142.038 133.398L-126.669 118.029L-134.568 110.131C-136.677 108.021 -139.483 106.859 -142.466 106.859ZM-104.041 106.859C-107.025 106.859 -109.829 108.021 -111.939 110.131L-119.839 118.029L-104.468 133.398C-100.113 137.753 -93.0267 137.753 -88.6719 133.398C-84.3171 129.044 -84.3171 121.957 -88.6719 117.603L-96.1436 110.131C-98.2523 108.021 -101.057 106.859 -104.041 106.859ZM0.53418 106.859C-2.44991 106.859 -5.2541 108.021 -7.36426 110.131L-14.8359 117.603C-19.1907 121.957 -19.1907 129.044 -14.8359 133.398C-10.4796 137.753 -3.39438 137.753 0.961914 133.398L16.3311 118.029L8.43164 110.131C6.32292 108.021 3.51688 106.859 0.53418 106.859ZM38.959 106.859C35.9749 106.859 33.1707 108.021 31.0605 110.131L23.1611 118.029L38.5322 133.398C42.887 137.753 49.9733 137.753 54.3281 133.398C58.6829 129.044 58.6829 121.957 54.3281 117.603L46.8564 110.131C44.7477 108.021 41.9432 106.859 38.959 106.859ZM144.026 106.859C141.042 106.859 138.238 108.021 136.128 110.131L128.656 117.603C124.301 121.957 124.301 129.044 128.656 133.398C133.013 137.753 140.098 137.753 144.454 133.398L159.823 118.029L151.924 110.131C149.815 108.021 147.009 106.859 144.026 106.859ZM182.451 106.859C179.467 106.859 176.663 108.021 174.553 110.131L166.653 118.029L182.024 133.398C186.379 137.753 193.466 137.753 197.82 133.398C202.175 129.044 202.175 121.957 197.82 117.603L190.349 110.131C188.24 108.021 185.435 106.859 182.451 106.859ZM286.538 106.859C283.554 106.859 280.75 108.021 278.64 110.131L271.168 117.603C266.813 121.957 266.813 129.044 271.168 133.398C275.524 137.753 282.61 137.753 286.966 133.398L302.335 118.029L294.436 110.131C292.327 108.021 289.521 106.859 286.538 106.859ZM324.963 106.859C321.979 106.859 319.175 108.021 317.064 110.131L309.165 118.029L324.536 133.398C328.891 137.753 335.977 137.753 340.332 133.398C344.687 129.044 344.687 121.957 340.332 117.603L332.86 110.131C330.752 108.021 327.947 106.859 324.963 106.859ZM429.54 106.859C426.556 106.859 423.752 108.021 421.642 110.131L414.17 117.603C409.815 121.957 409.815 129.044 414.17 133.398C418.526 137.753 425.612 137.753 429.968 133.398L445.337 118.029L437.438 110.131C435.329 108.021 432.523 106.859 429.54 106.859ZM467.965 106.859C464.981 106.859 462.177 108.021 460.066 110.131L452.167 118.029L467.538 133.398C471.893 137.753 478.979 137.753 483.334 133.398C487.689 129.044 487.689 121.957 483.334 117.603L475.862 110.131C473.754 108.021 470.949 106.859 467.965 106.859ZM-115.355 90.918C-119.71 86.5632 -126.798 86.5632 -131.152 90.918L-142.265 102.032C-138.067 102.082 -134.127 103.74 -131.152 106.715L-123.253 114.613L-115.355 106.715C-112.38 103.74 -108.441 102.082 -104.241 102.032L-115.355 90.918ZM27.6445 90.918C23.2897 86.5632 16.2024 86.5632 11.8477 90.918L0.735352 102.032C4.93311 102.082 8.87254 103.74 11.8477 106.715L19.7471 114.613L27.6445 106.715C30.6197 103.74 34.5595 102.082 38.7588 102.032L27.6445 90.918ZM171.137 90.918C166.782 86.5632 159.695 86.5632 155.34 90.918L144.228 102.032C148.425 102.082 152.365 103.74 155.34 106.715L163.239 114.613L171.137 106.715C174.112 103.74 178.052 102.082 182.251 102.032L171.137 90.918ZM313.648 90.918C309.294 86.5632 302.206 86.5632 297.852 90.918L286.739 102.032C290.937 102.082 294.876 103.74 297.852 106.715L305.751 114.613L313.648 106.715C316.624 103.74 320.563 102.082 324.763 102.032L313.648 90.918ZM456.65 90.918C452.296 86.5632 445.208 86.5632 440.854 90.918L429.741 102.032C433.939 102.082 437.878 103.74 440.854 106.715L448.753 114.613L456.65 106.715C459.626 103.74 463.565 102.082 467.765 102.032L456.65 90.918ZM-189.32 32.749C-183.082 26.5107 -172.931 26.5106 -166.692 32.749L-159.221 40.2197L-140.008 59.4316C-133.769 65.6702 -133.769 75.822 -140.008 82.0605L-159.221 101.272L-166.692 108.744C-172.931 114.983 -183.082 114.983 -189.32 108.744C-195.559 102.506 -195.559 92.3548 -189.32 86.1162L-173.95 70.7471L-189.32 55.376C-192.439 52.2574 -194 48.1592 -194 44.0625C-194 39.9659 -192.439 35.8675 -189.32 32.749ZM-79.8145 32.749C-73.5759 26.5107 -63.4251 26.5107 -57.1865 32.749C-50.9479 38.9876 -50.9479 49.1393 -57.1865 55.3779L-72.5566 70.7471L-57.1865 86.1182C-54.0682 89.2366 -52.5069 93.3342 -52.5068 97.4307C-52.5068 101.527 -54.068 105.626 -57.1865 108.744C-63.4251 114.983 -73.5759 114.983 -79.8145 108.744L-87.2861 101.274L-106.499 82.0615C-112.737 75.823 -112.737 65.6721 -106.499 59.4336L-79.8145 32.749ZM-46.3203 32.749C-40.0817 26.5107 -29.9309 26.5106 -23.6924 32.749L-16.2207 40.2197L2.99219 59.4316C9.23074 65.6702 9.23076 75.822 2.99219 82.0605L-16.2207 101.272L-23.6924 108.744C-29.931 114.983 -40.0817 114.983 -46.3203 108.744C-52.5589 102.506 -52.5589 92.3548 -46.3203 86.1162L-30.9502 70.7471L-46.3203 55.376C-49.4389 52.2574 -51 48.1592 -51 44.0625C-51 39.9659 -49.4388 35.8675 -46.3203 32.749ZM63.1855 32.749C69.4241 26.5107 79.5749 26.5107 85.8135 32.749C92.0521 38.9876 92.0521 49.1393 85.8135 55.3779L70.4434 70.7471L85.8135 86.1182C88.9318 89.2366 90.4931 93.3342 90.4932 97.4307C90.4932 101.527 88.932 105.626 85.8135 108.744C79.5749 114.983 69.4241 114.983 63.1855 108.744L55.7139 101.274L36.501 82.0615C30.2627 75.823 30.2626 65.6721 36.501 59.4336L63.1855 32.749ZM97.1719 32.749C103.41 26.5107 113.561 26.5106 119.8 32.749L127.271 40.2197L146.484 59.4316C152.723 65.6702 152.723 75.822 146.484 82.0605L127.271 101.272L119.8 108.744C113.561 114.983 103.41 114.983 97.1719 108.744C90.9333 102.506 90.9333 92.3548 97.1719 86.1162L112.542 70.7471L97.1719 55.376C94.0533 52.2574 92.4922 48.1592 92.4922 44.0625C92.4922 39.9659 94.0533 35.8675 97.1719 32.749ZM206.678 32.749C212.916 26.5107 223.067 26.5107 229.306 32.749C235.544 38.9876 235.544 49.1393 229.306 55.3779L213.936 70.7471L229.306 86.1182C232.424 89.2366 233.985 93.3342 233.985 97.4307C233.985 101.527 232.424 105.626 229.306 108.744C223.067 114.983 212.916 114.983 206.678 108.744L199.206 101.274L179.993 82.0615C173.755 75.823 173.755 65.6721 179.993 59.4336L206.678 32.749ZM239.684 32.749C245.922 26.5107 256.073 26.5106 262.312 32.749L269.783 40.2197L288.996 59.4316C295.235 65.6702 295.235 75.822 288.996 82.0605L269.783 101.272L262.312 108.744C256.073 114.983 245.922 114.983 239.684 108.744C233.445 102.506 233.445 92.3548 239.684 86.1162L255.054 70.7471L239.684 55.376C236.565 52.2574 235.004 48.1592 235.004 44.0625C235.004 39.9659 236.565 35.8675 239.684 32.749ZM349.189 32.749C355.428 26.5107 365.579 26.5107 371.817 32.749C378.056 38.9876 378.056 49.1393 371.817 55.3779L356.447 70.7471L371.817 86.1172C374.936 89.2356 376.497 93.3341 376.497 97.4307C376.497 101.527 374.936 105.626 371.817 108.744C365.579 114.983 355.428 114.983 349.189 108.744L341.718 101.274L322.505 82.0615C316.267 75.823 316.267 65.6721 322.505 59.4336L349.189 32.749ZM382.688 32.749C388.926 26.5107 399.077 26.5106 405.315 32.749L412.787 40.2197L432 59.4316C438.239 65.6702 438.239 75.822 432 82.0605L412.787 101.272L405.315 108.744C399.077 114.983 388.926 114.983 382.688 108.744C376.449 102.506 376.449 92.3548 382.688 86.1162L398.058 70.7471L382.688 55.376C379.569 52.2574 378.008 48.1592 378.008 44.0625C378.008 39.9659 379.569 35.8675 382.688 32.749ZM492.193 32.749C498.432 26.5107 508.583 26.5107 514.821 32.749C521.06 38.9876 521.06 49.1393 514.821 55.3779L499.451 70.7471L514.821 86.1172C517.94 89.2356 519.501 93.3341 519.501 97.4307C519.501 101.527 517.94 105.626 514.821 108.744C508.583 114.983 498.432 114.983 492.193 108.744L484.722 101.274L465.509 82.0615C459.271 75.823 459.27 65.6721 465.509 59.4336L492.193 32.749ZM-83.8701 82.0615C-85.9803 84.1702 -87.1415 86.9749 -87.1416 89.959C-87.1416 92.9432 -85.9803 95.7482 -83.8701 97.8584L-76.3984 105.33C-72.0437 109.685 -64.9573 109.685 -60.6025 105.33C-56.2478 100.974 -56.2478 93.8885 -60.6025 89.5322L-75.9717 74.1631L-83.8701 82.0615ZM59.1299 82.0615C57.0197 84.1702 55.8585 86.9749 55.8584 89.959C55.8584 92.9432 57.0197 95.7482 59.1299 97.8584L66.6016 105.33C70.9563 109.685 78.0427 109.685 82.3975 105.33C86.7523 100.974 86.7523 93.8885 82.3975 89.5322L67.0283 74.1631L59.1299 82.0615ZM202.622 82.0615C200.512 84.1702 199.351 86.9749 199.351 89.959C199.351 92.9432 200.512 95.7482 202.622 97.8584L210.094 105.33C214.448 109.685 221.535 109.685 225.89 105.33C230.244 100.974 230.244 93.8885 225.89 89.5322L210.521 74.1631L202.622 82.0615ZM345.134 82.0615C343.024 84.1702 341.862 86.9749 341.862 89.959C341.862 92.9432 343.024 95.7482 345.134 97.8584L352.605 105.33C356.96 109.685 364.047 109.685 368.401 105.33C372.756 100.974 372.756 93.8885 368.401 89.5322L353.032 74.1631L345.134 82.0615ZM488.138 82.0615C486.028 84.1702 484.866 86.9749 484.866 89.959C484.866 92.9432 486.027 95.7482 488.138 97.8584L495.609 105.33C499.964 109.685 507.051 109.685 511.405 105.33C515.76 100.974 515.76 93.8885 511.405 89.5322L496.036 74.1631L488.138 82.0615ZM-185.904 89.5322C-190.259 93.887 -190.259 100.973 -185.904 105.328C-181.55 109.683 -174.463 109.683 -170.108 105.328L-162.637 97.8564C-160.527 95.7477 -159.365 92.9432 -159.365 89.959C-159.365 86.9749 -160.527 84.1707 -162.637 82.0605L-170.535 74.1611L-185.904 89.5322ZM-42.9043 89.5322C-47.2591 93.887 -47.2591 100.973 -42.9043 105.328C-38.5495 109.683 -31.4632 109.683 -27.1084 105.328L-19.6367 97.8564C-17.5265 95.7477 -16.3652 92.9432 -16.3652 89.959C-16.3653 86.9749 -17.5266 84.1707 -19.6367 82.0605L-27.5352 74.1611L-42.9043 89.5322ZM100.588 89.5322C96.2331 93.887 96.2331 100.973 100.588 105.328C104.943 109.683 112.029 109.683 116.384 105.328L123.855 97.8564C125.966 95.7477 127.127 92.9432 127.127 89.959C127.127 86.9749 125.966 84.1707 123.855 82.0605L115.957 74.1611L100.588 89.5322ZM243.1 89.5322C238.745 93.887 238.745 100.973 243.1 105.328C247.454 109.683 254.541 109.683 258.896 105.328L266.367 97.8564C268.477 95.7477 269.639 92.9432 269.639 89.959C269.639 86.9749 268.477 84.1707 266.367 82.0605L258.469 74.1611L243.1 89.5322ZM386.104 89.5322C381.749 93.887 381.749 100.973 386.104 105.328C390.458 109.683 397.545 109.683 401.899 105.328L409.371 97.8564C411.481 95.7477 412.643 92.9432 412.643 89.959C412.643 86.9749 411.481 84.1707 409.371 82.0605L401.473 74.1611L386.104 89.5322ZM-154.538 51.7354C-154.588 55.9331 -156.246 59.8726 -159.221 62.8477L-167.119 70.7471L-159.221 78.6445C-156.246 81.6197 -154.588 85.5595 -154.538 89.7588L-143.424 78.6445C-139.069 74.2898 -139.069 67.2024 -143.424 62.8477L-154.538 51.7354ZM-103.083 62.8496C-107.438 67.2043 -107.437 74.2908 -103.083 78.6455L-91.9687 89.7588C-91.9189 85.561 -90.2613 81.6207 -87.2861 78.6455L-79.3877 70.7471L-87.2861 62.8496C-90.2612 59.8745 -91.9189 55.9346 -91.9687 51.7354L-103.083 62.8496ZM-11.5381 51.7354C-11.5879 55.9331 -13.2456 59.8726 -16.2207 62.8477L-24.1191 70.7471L-16.2207 78.6445C-13.2456 81.6197 -11.5879 85.5595 -11.5381 89.7588L-0.423828 78.6445C3.93094 74.2898 3.93092 67.2024 -0.423828 62.8477L-11.5381 51.7354ZM39.917 62.8496C35.5625 67.2043 35.5625 74.2908 39.917 78.6455L51.0313 89.7588C51.0811 85.561 52.7387 81.6207 55.7139 78.6455L63.6123 70.7471L55.7139 62.8496C52.7388 59.8745 51.0811 55.9346 51.0312 51.7354L39.917 62.8496ZM131.954 51.7354C131.904 55.9331 130.247 59.8726 127.271 62.8477L119.373 70.7471L127.271 78.6445C130.247 81.6197 131.904 85.5595 131.954 89.7588L143.068 78.6445C147.423 74.2898 147.423 67.2024 143.068 62.8477L131.954 51.7354ZM183.409 62.8496C179.055 67.2043 179.055 74.2908 183.409 78.6455L194.523 89.7588C194.573 85.561 196.231 81.6207 199.206 78.6455L207.104 70.7471L199.206 62.8496C196.231 59.8745 194.573 55.9346 194.523 51.7354L183.409 62.8496ZM274.466 51.7354C274.416 55.9331 272.758 59.8726 269.783 62.8477L261.885 70.7471L269.783 78.6445C272.758 81.6197 274.416 85.5595 274.466 89.7588L285.58 78.6445C289.935 74.2897 289.935 67.2024 285.58 62.8477L274.466 51.7354ZM325.921 62.8496C321.566 67.2043 321.566 74.2908 325.921 78.6455L337.035 89.7588C337.085 85.561 338.743 81.6207 341.718 78.6455L349.616 70.7471L341.718 62.8496C338.743 59.8745 337.085 55.9346 337.035 51.7354L325.921 62.8496ZM417.47 51.7354C417.42 55.9331 415.762 59.8726 412.787 62.8477L404.889 70.7471L412.787 78.6445C415.762 81.6197 417.42 85.5595 417.47 89.7588L428.584 78.6445C432.939 74.2898 432.939 67.2024 428.584 62.8477L417.47 51.7354ZM468.925 62.8496C464.57 67.2043 464.57 74.2908 468.925 78.6455L480.039 89.7588C480.089 85.561 481.747 81.6207 484.722 78.6455L492.62 70.7471L484.722 62.8496C481.747 59.8745 480.089 55.9346 480.039 51.7354L468.925 62.8496ZM-60.6025 36.165C-64.9573 31.8105 -72.0437 31.8105 -76.3984 36.165L-83.8701 43.6367C-85.9803 45.7454 -87.1415 48.5501 -87.1416 51.5342C-87.1416 54.5184 -85.9803 57.3234 -83.8701 59.4336L-75.9717 67.332L-60.6025 51.9619C-56.2478 47.6071 -56.2478 40.5198 -60.6025 36.165ZM82.3975 36.165C78.0427 31.8105 70.9563 31.8105 66.6016 36.165L59.1299 43.6367C57.0197 45.7454 55.8585 48.5501 55.8584 51.5342C55.8584 54.5184 57.0197 57.3234 59.1299 59.4336L67.0283 67.332L82.3975 51.9619C86.7523 47.6071 86.7523 40.5198 82.3975 36.165ZM225.89 36.165C221.535 31.8105 214.448 31.8105 210.094 36.165L202.622 43.6367C200.512 45.7454 199.351 48.5501 199.351 51.5342C199.351 54.5184 200.512 57.3234 202.622 59.4336L210.521 67.332L225.89 51.9619C230.244 47.6071 230.244 40.5198 225.89 36.165ZM368.401 36.165C364.047 31.8105 356.96 31.8105 352.605 36.165L345.134 43.6367C343.024 45.7454 341.862 48.5501 341.862 51.5342C341.862 54.5184 343.024 57.3234 345.134 59.4336L353.032 67.332L368.401 51.9619C372.756 47.6071 372.756 40.5198 368.401 36.165ZM511.405 36.165C507.051 31.8105 499.964 31.8105 495.609 36.165L488.138 43.6367C486.028 45.7454 484.866 48.5501 484.866 51.5342C484.866 54.5184 486.027 57.3234 488.138 59.4336L496.036 67.332L511.405 51.9619C515.76 47.6071 515.76 40.5198 511.405 36.165ZM-170.108 36.1641C-174.463 31.8093 -181.55 31.8093 -185.904 36.1641C-190.259 40.5204 -190.259 47.6056 -185.904 51.9619L-170.535 67.3311L-162.637 59.4316C-160.527 57.3229 -159.365 54.5184 -159.365 51.5342C-159.365 48.5501 -160.527 45.7459 -162.637 43.6357L-170.108 36.1641ZM-27.1084 36.1641C-31.4632 31.8093 -38.5495 31.8093 -42.9043 36.1641C-47.2591 40.5204 -47.2591 47.6056 -42.9043 51.9619L-27.5352 67.3311L-19.6367 59.4316C-17.5265 57.3229 -16.3652 54.5184 -16.3652 51.5342C-16.3653 48.5501 -17.5266 45.7459 -19.6367 43.6357L-27.1084 36.1641ZM116.384 36.1641C112.029 31.8093 104.943 31.8093 100.588 36.1641C96.2331 40.5204 96.2331 47.6056 100.588 51.9619L115.957 67.3311L123.855 59.4316C125.966 57.3229 127.127 54.5184 127.127 51.5342C127.127 48.5501 125.966 45.7459 123.855 43.6357L116.384 36.1641ZM258.896 36.1641C254.541 31.8093 247.454 31.8093 243.1 36.1641C238.745 40.5204 238.745 47.6056 243.1 51.9619L258.469 67.3311L266.367 59.4316C268.477 57.3229 269.639 54.5184 269.639 51.5342C269.639 48.5501 268.477 45.7459 266.367 43.6357L258.896 36.1641ZM401.899 36.1641C397.545 31.8093 390.458 31.8093 386.104 36.1641C381.749 40.5204 381.749 47.6056 386.104 51.9619L401.473 67.3311L409.371 59.4316C411.481 57.3229 412.643 54.5184 412.643 51.5342C412.643 48.5501 411.481 45.7459 409.371 43.6357L401.899 36.1641ZM-96.5693 0C-92.4727 0 -88.3744 1.56115 -85.2559 4.67969C-79.0173 10.9183 -79.0173 21.069 -85.2559 27.3076L-92.7256 34.7793L-111.938 53.9922C-118.177 60.2304 -128.328 60.2304 -134.566 53.9922L-161.251 27.3076C-167.489 21.0691 -167.489 10.9183 -161.251 4.67969C-155.012 -1.55891 -144.861 -1.55891 -138.622 4.67969L-123.253 20.0498L-107.883 4.67969C-104.764 1.56124 -100.666 9.15853e-05 -96.5693 0ZM46.4307 0C50.5273 0 54.6256 1.56115 57.7441 4.67969C63.9827 10.9183 63.9827 21.069 57.7441 27.3076L50.2744 34.7793L31.0615 53.9922C24.823 60.2304 14.6721 60.2304 8.43359 53.9922L-18.251 27.3076C-24.4894 21.0691 -24.4893 10.9183 -18.251 4.67969C-12.0124 -1.55891 -1.86066 -1.55891 4.37793 4.67969L19.7471 20.0498L35.1172 4.67969C38.2356 1.56124 42.3341 9.15854e-05 46.4307 0ZM189.923 0C194.02 0 198.118 1.56115 201.236 4.67969C207.475 10.9183 207.475 21.069 201.236 27.3076L193.767 34.7793L174.554 53.9922C168.315 60.2304 158.164 60.2304 151.926 53.9922L125.241 27.3076C119.003 21.0691 119.003 10.9183 125.241 4.67969C131.48 -1.55891 141.632 -1.55891 147.87 4.67969L163.239 20.0498L178.609 4.67969C181.728 1.56124 185.826 9.15854e-05 189.923 0ZM332.435 0C336.531 0 340.63 1.56115 343.748 4.67969C349.987 10.9183 349.987 21.069 343.748 27.3076L336.278 34.7793L317.065 53.9922C310.827 60.2304 300.676 60.2305 294.438 53.9922L267.753 27.3076C261.515 21.0691 261.515 10.9183 267.753 4.67969C273.992 -1.55891 284.143 -1.55891 290.382 4.67969L305.751 20.0498L321.122 4.67969C324.24 1.56128 328.338 0.000115523 332.435 0ZM475.437 0C479.533 0 483.631 1.56115 486.75 4.67969C492.989 10.9183 492.989 21.069 486.75 27.3076L479.28 34.7793L460.067 53.9922C453.829 60.2304 443.678 60.2304 437.439 53.9922L410.755 27.3076C404.516 21.0691 404.517 10.9183 410.755 4.67969C416.993 -1.55891 427.145 -1.55891 433.384 4.67969L448.753 20.0498L464.123 4.67969C467.241 1.56125 471.34 0.000105835 475.437 0ZM-131.15 34.7793C-134.125 37.7544 -138.065 39.4121 -142.265 39.4619L-131.15 50.5762C-126.796 54.9306 -119.709 54.9306 -115.354 50.5762L-104.241 39.4619C-108.439 39.4121 -112.379 37.7544 -115.354 34.7793L-123.253 26.8809L-131.15 34.7793ZM11.8496 34.7793C8.87451 37.7544 4.9346 39.4121 0.735352 39.4619L11.8496 50.5762C16.2043 54.9306 23.2908 54.9306 27.6455 50.5762L38.7588 39.4619C34.561 39.4121 30.6207 37.7544 27.6455 34.7793L19.7471 26.8809L11.8496 34.7793ZM155.342 34.7793C152.367 37.7544 148.427 39.4121 144.228 39.4619L155.342 50.5762C159.697 54.9306 166.783 54.9306 171.138 50.5762L182.251 39.4619C178.053 39.4121 174.113 37.7544 171.138 34.7793L163.239 26.8809L155.342 34.7793ZM297.854 34.7793C294.878 37.7544 290.939 39.4121 286.739 39.4619L297.854 50.5762C302.208 54.9306 309.295 54.9306 313.649 50.5762L324.763 39.4619C320.565 39.4121 316.625 37.7544 313.649 34.7793L305.751 26.8809L297.854 34.7793ZM440.855 34.7793C437.88 37.7544 433.94 39.4121 429.741 39.4619L440.855 50.5762C445.21 54.9306 452.297 54.9306 456.651 50.5762L467.765 39.4619C463.567 39.4121 459.627 37.7544 456.651 34.7793L448.753 26.8809L440.855 34.7793ZM-142.038 8.0957C-146.393 3.74091 -153.48 3.74091 -157.835 8.0957C-162.189 12.4505 -162.19 19.5369 -157.835 23.8916L-150.363 31.3633C-148.255 33.4734 -145.45 34.6347 -142.466 34.6348C-139.482 34.6348 -136.677 33.4735 -134.566 31.3633L-126.668 23.4648L-142.038 8.0957ZM-88.6699 8.0957C-93.0262 3.74091 -100.111 3.74091 -104.468 8.0957L-119.837 23.4648L-111.938 31.3633C-109.83 33.4735 -107.025 34.6347 -104.041 34.6348C-101.057 34.6348 -98.2518 33.4735 -96.1416 31.3633L-88.6699 23.8916C-84.3153 19.5369 -84.3154 12.4505 -88.6699 8.0957ZM0.961914 8.0957C-3.39287 3.74091 -10.4802 3.74091 -14.835 8.0957C-19.1895 12.4505 -19.1896 19.5369 -14.835 23.8916L-7.36328 31.3633C-5.25462 33.4734 -2.44994 34.6347 0.53418 34.6348C3.51839 34.6348 6.32336 33.4735 8.43359 31.3633L16.332 23.4648L0.961914 8.0957ZM54.3301 8.0957C49.9738 3.74091 42.8885 3.74091 38.5322 8.0957L23.1631 23.4648L31.0615 31.3633C33.1702 33.4735 35.9749 34.6347 38.959 34.6348C41.9432 34.6348 44.7482 33.4735 46.8584 31.3633L54.3301 23.8916C58.6847 19.5369 58.6846 12.4505 54.3301 8.0957ZM144.454 8.0957C140.099 3.74091 133.012 3.74091 128.657 8.0957C124.303 12.4505 124.303 19.5369 128.657 23.8916L136.129 31.3633C138.238 33.4734 141.042 34.6347 144.026 34.6348C147.011 34.6348 149.816 33.4735 151.926 31.3633L159.824 23.4648L144.454 8.0957ZM197.822 8.0957C193.466 3.74091 186.381 3.74091 182.024 8.0957L166.655 23.4648L174.554 31.3633C176.662 33.4735 179.467 34.6347 182.451 34.6348C185.435 34.6348 188.24 33.4735 190.351 31.3633L197.822 23.8916C202.177 19.5369 202.177 12.4505 197.822 8.0957ZM286.966 8.0957C282.611 3.74091 275.524 3.74091 271.169 8.0957C266.815 12.4505 266.814 19.5369 271.169 23.8916L278.641 31.3633C280.749 33.4734 283.554 34.6347 286.538 34.6348C289.522 34.6348 292.327 33.4735 294.438 31.3633L302.337 23.4648L286.966 8.0957ZM340.334 8.0957C335.978 3.74091 328.892 3.74091 324.536 8.0957L309.167 23.4648L317.065 31.3633C319.174 33.4734 321.979 34.6347 324.963 34.6348C327.947 34.6348 330.752 33.4735 332.862 31.3633L340.334 23.8916C344.689 19.5369 344.689 12.4505 340.334 8.0957ZM429.968 8.09473C425.613 3.74011 418.526 3.74016 414.171 8.09473C409.816 12.4495 409.816 19.5368 414.171 23.8916L421.643 31.3633C423.751 33.4734 426.556 34.6347 429.54 34.6348C432.524 34.6348 435.329 33.4735 437.439 31.3633L445.338 23.4648L429.968 8.09473ZM483.336 8.09473C478.98 3.74027 471.894 3.74033 467.538 8.09473L452.169 23.4648L460.067 31.3633C462.176 33.4734 464.981 34.6347 467.965 34.6348C470.949 34.6348 473.754 33.4735 475.864 31.3633L483.336 23.8916C487.691 19.5368 487.691 12.4495 483.336 8.09473Z" fill="#F9FAFB"/>
</mask>
<g mask="url(#mask0_1_4825)">
<g opacity="0.4" filter="url(#filter0_f_1_4825)">
<circle cx="32" cy="32" r="32" transform="matrix(4.37114e-08 1 1 -4.37114e-08 -121 38.4932)" fill="#49B3F3"/>
</g>
<g opacity="0.4" filter="url(#filter1_f_1_4825)">
<circle cx="32" cy="32" r="32" transform="matrix(4.37114e-08 1 1 -4.37114e-08 41 38.4932)" fill="#49B3F3"/>
</g>
<g filter="url(#filter2_f_1_4825)">
<circle cx="41" cy="41" r="41" transform="matrix(4.37114e-08 1 1 -4.37114e-08 -63 29.4932)" fill="#1004A4"/>
</g>
<g opacity="0.24" filter="url(#filter3_f_1_4825)">
<ellipse cx="41" cy="41.5" rx="41" ry="41.5" transform="matrix(4.37114e-08 1 1 -4.37114e-08 124 29.4932)" fill="#1004A4"/>
</g>
<g filter="url(#filter4_f_1_4825)">
<ellipse cx="41" cy="41.5" rx="41" ry="41.5" transform="matrix(4.37114e-08 1 1 -4.37114e-08 333 29.4932)" fill="#EAEEF0"/>
</g>
<g filter="url(#filter5_f_1_4825)">
<ellipse cx="23" cy="22.5" rx="23" ry="22.5" transform="matrix(4.37114e-08 1 1 -4.37114e-08 69 47.4932)" fill="#49B3F3"/>
</g>
<g opacity="0.64" filter="url(#filter6_f_1_4825)">
<ellipse cx="23" cy="22.5" rx="23" ry="22.5" transform="matrix(4.37114e-08 1 1 -4.37114e-08 1 47.4932)" fill="#E12A80"/>
</g>
</g>
<defs>
<filter id="filter0_f_1_4825" x="-241" y="-81.5068" width="304" height="304" filterUnits="userSpaceOnUse" color-interpolation-filters="sRGB">
<feFlood flood-opacity="0" result="BackgroundImageFix"/>
<feBlend mode="normal" in="SourceGraphic" in2="BackgroundImageFix" result="shape"/>
<feGaussianBlur stdDeviation="60" result="effect1_foregroundBlur_1_4825"/>
</filter>
<filter id="filter1_f_1_4825" x="-79" y="-81.5068" width="304" height="304" filterUnits="userSpaceOnUse" color-interpolation-filters="sRGB">
<feFlood flood-opacity="0" result="BackgroundImageFix"/>
<feBlend mode="normal" in="SourceGraphic" in2="BackgroundImageFix" result="shape"/>
<feGaussianBlur stdDeviation="60" result="effect1_foregroundBlur_1_4825"/>
</filter>
<filter id="filter2_f_1_4825" x="-143" y="-50.5068" width="242" height="242" filterUnits="userSpaceOnUse" color-interpolation-filters="sRGB">
<feFlood flood-opacity="0" result="BackgroundImageFix"/>
<feBlend mode="normal" in="SourceGraphic" in2="BackgroundImageFix" result="shape"/>
<feGaussianBlur stdDeviation="40" result="effect1_foregroundBlur_1_4825"/>
</filter>
<filter id="filter3_f_1_4825" x="4" y="-90.5068" width="323" height="322" filterUnits="userSpaceOnUse" color-interpolation-filters="sRGB">
<feFlood flood-opacity="0" result="BackgroundImageFix"/>
<feBlend mode="normal" in="SourceGraphic" in2="BackgroundImageFix" result="shape"/>
<feGaussianBlur stdDeviation="60" result="effect1_foregroundBlur_1_4825"/>
</filter>
<filter id="filter4_f_1_4825" x="213" y="-90.5068" width="323" height="322" filterUnits="userSpaceOnUse" color-interpolation-filters="sRGB">
<feFlood flood-opacity="0" result="BackgroundImageFix"/>
<feBlend mode="normal" in="SourceGraphic" in2="BackgroundImageFix" result="shape"/>
<feGaussianBlur stdDeviation="60" result="effect1_foregroundBlur_1_4825"/>
</filter>
<filter id="filter5_f_1_4825" x="5" y="-16.5068" width="173" height="174" filterUnits="userSpaceOnUse" color-interpolation-filters="sRGB">
<feFlood flood-opacity="0" result="BackgroundImageFix"/>
<feBlend mode="normal" in="SourceGraphic" in2="BackgroundImageFix" result="shape"/>
<feGaussianBlur stdDeviation="32" result="effect1_foregroundBlur_1_4825"/>
</filter>
<filter id="filter6_f_1_4825" x="-79" y="-32.5068" width="205" height="206" filterUnits="userSpaceOnUse" color-interpolation-filters="sRGB">
<feFlood flood-opacity="0" result="BackgroundImageFix"/>
<feBlend mode="normal" in="SourceGraphic" in2="BackgroundImageFix" result="shape"/>
<feGaussianBlur stdDeviation="40" result="effect1_foregroundBlur_1_4825"/>
</filter>
</defs>
</svg>
