<svg width="70" height="70" viewBox="0 0 70 70" fill="none" xmlns="http://www.w3.org/2000/svg">
<path d="M69.7374 53.7378L69.7374 43.1711L69.7373 16.0007C69.7373 7.17796 62.5594 5.3855e-05 53.7367 5.33988e-05L26.5663 4.48358e-05L16.0006 0.00111323C7.17793 0.0011143 5.10481e-06 7.17904 7.34606e-06 16.0017C4.46278e-06 20.412 1.79421 24.4135 4.691 27.3103C7.58778 30.2071 11.5893 32.0013 15.9996 32.0013L37.7372 32.0013L37.7361 53.7378C37.7361 62.5605 44.914 69.7385 53.7367 69.7385C62.5594 69.7385 69.7374 62.5605 69.7374 53.7378ZM16.0006 27.1715C9.84096 27.1705 4.83081 22.1603 4.82975 16.0007C4.82975 9.84205 9.84095 4.83085 15.9996 4.83085L26.5663 4.83085C29.5506 4.83085 32.3545 5.9932 34.4647 8.10335C36.5738 10.2124 37.7372 13.0174 37.7361 16.0007L37.7361 27.1715L16.0006 27.1715ZM42.5669 16.0007C42.5669 11.7932 40.9531 7.83546 38.02 4.83194L53.7367 4.83086C59.8953 4.83086 64.9065 9.84205 64.9065 16.0007L64.9065 31.7184C61.9019 28.7843 57.9442 27.1705 53.7367 27.1705L42.5669 27.1715L42.5669 16.0007ZM53.7367 64.9076C47.5781 64.9076 42.5669 59.8964 42.5669 53.7378L42.5659 32.0013L53.7367 32.0013C56.721 32.0013 59.525 33.1636 61.6351 35.2738C63.7453 37.3839 64.9076 40.1878 64.9065 43.1711L64.9065 53.7378C64.9065 59.8964 59.8953 64.9076 53.7367 64.9076Z" fill="#E8E6FA"/>
</svg>
