<svg width="70" height="70" viewBox="0 0 70 70" fill="none" xmlns="http://www.w3.org/2000/svg">
<path d="M53.7378 2.29357e-05L43.171 2.04673e-05L16.0006 1.59504e-05C7.17791 1.56629e-05 -1.28514e-05 7.17794 -1.33075e-05 16.0006L-7.70918e-06 43.1711L0.00106271 53.7367C0.00106234 62.5595 7.17897 69.7374 16.0017 69.7374C20.412 69.7374 24.4134 67.9431 27.3102 65.0464C30.207 62.1496 32.0012 58.1481 32.0012 53.7378L32.0012 32.0002L53.7378 32.0013C62.5605 32.0013 69.7384 24.8233 69.7384 16.0006C69.7384 7.17793 62.5605 2.33919e-05 53.7378 2.29357e-05ZM27.1715 53.7368C27.1704 59.8964 22.1603 64.9066 16.0006 64.9076C9.84201 64.9076 4.8308 59.8964 4.8308 53.7378L4.8308 43.1711C4.8308 40.1867 5.99315 37.3828 8.1033 35.2727C10.2134 33.1625 13.0174 32.0002 16.0006 32.0013L27.1715 32.0013L27.1715 53.7368ZM16.0006 27.1704C11.7931 27.1704 7.83539 28.7843 4.83188 31.7173L4.8308 16.0006C4.83079 9.84203 9.842 4.83082 16.0006 4.83083L31.7184 4.83084C28.7842 7.83542 27.1704 11.7932 27.1704 16.0006L27.1715 27.1704L16.0006 27.1704ZM64.9076 16.0006C64.9076 22.1592 59.8964 27.1704 53.7378 27.1704L32.0012 27.1715L32.0012 16.0006C32.0012 13.0163 33.1636 10.2124 35.2737 8.10226C37.3839 5.99211 40.1878 4.82976 43.171 4.83083L53.7378 4.83083C59.8964 4.83083 64.9076 9.84205 64.9076 16.0006Z" fill="#F9FAFB"/>
</svg>
