<svg width="70" height="70" viewBox="0 0 70 70" fill="none" xmlns="http://www.w3.org/2000/svg">
<path d="M2.02408e-05 16.0007L2.29382e-05 26.5674L2.8333e-05 53.7379C2.84173e-05 62.5606 7.17794 69.7385 16.0006 69.7385L43.1711 69.7385L53.7367 69.7374C62.5595 69.7374 69.7374 62.5595 69.7374 53.7368C69.7374 49.3265 67.9432 45.325 65.0464 42.4282C62.1496 39.5314 58.1481 37.7372 53.7378 37.7372L32.0002 37.7372L32.0013 16.0007C32.0013 7.178 24.8233 5.7171e-05 16.0006 5.7171e-05C7.17794 5.44736e-05 2.15895e-05 7.17798 2.02408e-05 16.0007ZM53.7367 42.567C59.8964 42.568 64.9066 47.5782 64.9076 53.7379C64.9076 59.8965 59.8964 64.9077 53.7378 64.9077H43.1711C40.1868 64.9077 37.3828 63.7453 35.2727 61.6352C33.1636 59.5261 32.0002 56.7211 32.0013 53.7379L32.0013 42.567L53.7367 42.567ZM27.1705 53.7379C27.1705 57.9454 28.7843 61.9031 31.7173 64.9066L16.0007 64.9077C9.84205 64.9077 4.83086 59.8965 4.83086 53.7379L4.83085 38.0201C7.83544 40.9542 11.7932 42.5681 16.0007 42.5681L27.1704 42.567L27.1705 53.7379ZM16.0007 4.83089C22.1593 4.83089 27.1705 9.84208 27.1705 16.0007L27.1715 37.7372L16.0006 37.7372C13.0163 37.7372 10.2124 36.5749 8.10226 34.4647C5.99211 32.3546 4.82979 29.5507 4.83086 26.5674L4.83085 16.0007C4.83085 9.84209 9.84206 4.83089 16.0007 4.83089Z" fill="#E8E6FA"/>
</svg>
