<svg width="41" height="40" viewBox="0 0 41 40" fill="none" xmlns="http://www.w3.org/2000/svg">
<path d="M24.7078 29.2134C22.3042 26.7455 18.407 26.7455 16.0035 29.2134C13.5999 31.6813 13.5999 35.683 16.0035 38.1509C18.407 40.6188 22.3042 40.6188 24.7078 38.1509C27.1113 35.683 27.1113 31.6813 24.7078 29.2134Z" fill="#1004A4"/>
<path d="M16.6673 10.5849L18.3062 12.2677L20.3556 14.372L22.5769 12.0912L24.0439 10.5849C26.7053 7.85223 31.0189 7.85223 33.6788 10.5849L27.6166 4.36032L25.5005 2.18758C22.6598 -0.729193 18.0528 -0.729193 15.2106 2.18758L13.3569 4.09101L5.47498 12.184L7.03239 10.5849C9.69228 7.85223 14.0074 7.85223 16.6673 10.5849Z" fill="#1004A4"/>
<path d="M38.9497 15.9971L38.4933 15.5285L35.4066 12.3592L33.6788 10.5851C31.0189 7.85239 26.7038 7.85239 24.0439 10.5851L22.5769 12.0914L20.3556 14.3721L30.4439 24.7307C32.7926 27.1423 36.601 27.1423 38.9497 24.7307C41.2984 22.3191 41.2984 18.4088 38.9497 15.9971Z" fill="#E12A80"/>
<path d="M16.6673 10.5851C14.0074 7.85239 9.69232 7.85239 7.03243 10.5851L5.47502 12.1842L1.76153 15.9971C-0.587178 18.4088 -0.587178 22.3191 1.76153 24.7307C4.11025 27.1423 7.91857 27.1423 10.2673 24.7307L10.7237 24.2621L20.3556 14.3721L18.3062 12.2679L16.6673 10.5851Z" fill="#49B3F3"/>
</svg>
