<svg width="142" height="714" viewBox="0 0 142 714" fill="none" xmlns="http://www.w3.org/2000/svg">
<mask id="mask0_1_4701" style="mask-type:alpha" maskUnits="userSpaceOnUse" x="0" y="0" width="142" height="714">
<path d="M53.9922 59.4316C60.2308 65.6702 60.2308 75.822 53.9922 82.0605L34.7793 101.272L27.3076 108.744C21.069 114.983 10.9183 114.983 4.67968 108.744C-1.55887 102.506 -1.5589 92.3548 4.67968 86.1162L20.0498 70.7471L4.67969 55.376C1.56114 52.2574 -2.1051e-06 48.1592 -1.92603e-06 44.0625C4.40294e-05 39.9659 1.56119 35.8675 4.67969 32.749C10.9182 26.5107 21.0691 26.5107 27.3076 32.749L34.7793 40.2197L53.9922 59.4316ZM53.9922 202.432C60.2308 208.67 60.2308 218.822 53.9922 225.061L34.7793 244.272L27.3076 251.744C21.069 257.983 10.9183 257.983 4.67968 251.744C-1.55886 245.506 -1.55889 235.355 4.67968 229.116L20.0498 213.747L4.67968 198.376C1.56113 195.257 -8.35583e-06 191.159 -8.17676e-06 187.062C3.77787e-05 182.966 1.56118 178.868 4.67968 175.749C10.9182 169.511 21.0691 169.511 27.3076 175.749L34.7793 183.22L53.9922 202.432ZM53.9922 345.924C60.2308 352.162 60.2308 362.314 53.9922 368.553L34.7793 387.765L27.3076 395.236C21.069 401.475 10.9183 401.475 4.67967 395.236C-1.55887 388.998 -1.5589 378.847 4.67967 372.608L20.0498 357.239L4.67967 341.868C1.56113 338.75 -1.46281e-05 334.651 -1.4449e-05 330.555C3.15064e-05 326.458 1.56117 322.36 4.67967 319.241C10.9182 313.003 21.0691 313.003 27.3076 319.241L34.7793 326.712L53.9922 345.924ZM53.9922 488.436C60.2308 494.674 60.2308 504.826 53.9922 511.064L34.7793 530.276L27.3076 537.748C21.069 543.987 10.9183 543.987 4.67966 537.748C-1.55888 531.509 -1.55891 521.359 4.67966 515.12L20.0498 499.751L4.67967 484.38C1.56112 481.261 -2.08575e-05 477.163 -2.06784e-05 473.066C1.00183e-05 468.97 1.56117 464.871 4.67967 461.753C10.9182 455.515 21.0691 455.515 27.3076 461.753L34.7793 469.224L53.9922 488.436ZM53.9922 631.438C60.2308 637.676 60.2308 647.828 53.9922 654.066L34.7793 673.278L27.3076 680.75C21.069 686.989 10.9182 686.989 4.67966 680.75C-1.55888 674.511 -1.55891 664.361 4.67966 658.122L20.0498 642.753L4.67966 627.382C1.56111 624.263 -2.71083e-05 620.165 -2.69292e-05 616.068C3.76744e-06 611.972 1.56116 607.873 4.67966 604.755C10.9182 598.517 21.0691 598.517 27.3076 604.755L34.7793 612.226L53.9922 631.438ZM34.6348 51.5342C34.6347 48.5501 33.4734 45.7459 31.3633 43.6357L23.8916 36.1641C19.5368 31.8093 12.4505 31.8093 8.0957 36.1641C3.74093 40.5204 3.74092 47.6056 8.0957 51.9619L23.4648 67.3311L31.3633 59.4316C33.4735 57.3229 34.6348 54.5169 34.6348 51.5342ZM34.6348 89.959C34.6347 86.9749 33.4734 84.1707 31.3633 82.0605L23.4648 74.1611L8.0957 89.5322C3.74092 93.887 3.74095 100.973 8.0957 105.328C12.4505 109.683 19.5368 109.683 23.8916 105.328L31.3633 97.8564C33.4735 95.7477 34.6348 92.9432 34.6348 89.959ZM34.6348 194.534C34.6347 191.55 33.4734 188.746 31.3633 186.636L23.8916 179.164C19.5368 174.809 12.4505 174.809 8.0957 179.164C3.74094 183.52 3.74091 190.606 8.09569 194.962L23.4648 210.331L31.3633 202.432C33.4735 200.323 34.6348 197.517 34.6348 194.534ZM34.6348 232.959C34.6347 229.975 33.4734 227.171 31.3633 225.061L23.4648 217.161L8.09569 232.532C3.74093 236.887 3.74096 243.973 8.09569 248.328C12.4505 252.683 19.5368 252.683 23.8916 248.328L31.3633 240.856C33.4735 238.748 34.6348 235.943 34.6348 232.959ZM34.6348 338.026C34.6347 335.042 33.4734 332.238 31.3633 330.128L23.8916 322.656C19.5368 318.301 12.4505 318.301 8.09569 322.656C3.74094 327.013 3.74091 334.098 8.09569 338.454L23.4648 353.823L31.3633 345.924C33.4735 343.815 34.6348 341.009 34.6348 338.026ZM34.6347 376.451C34.6347 373.467 33.4734 370.663 31.3633 368.553L23.4648 360.653L8.09569 376.024C3.74092 380.379 3.74095 387.466 8.09569 391.82C12.4505 396.175 19.5368 396.175 23.8916 391.82L31.3633 384.349C33.4735 382.24 34.6347 379.435 34.6347 376.451ZM34.6347 480.538C34.6347 477.554 33.4734 474.75 31.3633 472.64L23.8916 465.168C19.5368 460.813 12.4505 460.813 8.09568 465.168C3.74093 469.524 3.7409 476.61 8.09568 480.966L23.4648 496.335L31.3633 488.436C33.4735 486.327 34.6347 483.521 34.6347 480.538ZM34.6347 518.963C34.6347 515.979 33.4734 513.175 31.3633 511.064L23.4648 503.165L8.09568 518.536C3.74091 522.891 3.74096 529.977 8.09568 534.332C12.4505 538.687 19.5368 538.687 23.8916 534.332L31.3633 526.86C33.4735 524.752 34.6347 521.947 34.6347 518.963ZM34.6347 623.54C34.6347 620.556 33.4734 617.752 31.3633 615.642L23.8916 608.17C19.5368 603.815 12.4505 603.815 8.09568 608.17C3.74094 612.526 3.74091 619.612 8.09568 623.968L23.4648 639.337L31.3633 631.438C33.4735 629.329 34.6347 626.523 34.6347 623.54ZM34.6347 661.965C34.6347 658.981 33.4734 656.177 31.3633 654.066L23.4648 646.167L8.09567 661.538C3.74091 665.893 3.74094 672.979 8.09567 677.334C12.4505 681.689 19.5368 681.689 23.8916 677.334L31.3633 669.862C33.4735 667.754 34.6347 664.949 34.6347 661.965ZM50.5762 78.6445C54.931 74.2897 54.931 67.2024 50.5762 62.8477L39.4619 51.7354C39.4121 55.9331 37.7544 59.8725 34.7793 62.8477L26.8809 70.7471L34.7793 78.6445C37.7544 81.6197 39.4121 85.5595 39.4619 89.7588L50.5762 78.6445ZM50.5762 221.645C54.931 217.29 54.931 210.202 50.5762 205.848L39.4619 194.735C39.4121 198.933 37.7544 202.873 34.7793 205.848L26.8809 213.747L34.7793 221.645C37.7544 224.62 39.4121 228.559 39.4619 232.759L50.5762 221.645ZM50.5762 365.137C54.9309 360.782 54.9309 353.695 50.5762 349.34L39.4619 338.228C39.4121 342.425 37.7544 346.365 34.7793 349.34L26.8808 357.239L34.7793 365.137C37.7544 368.112 39.4121 372.052 39.4619 376.251L50.5762 365.137ZM50.5761 507.648C54.9309 503.294 54.9309 496.206 50.5762 491.852L39.4619 480.739C39.4121 484.937 37.7544 488.876 34.7793 491.852L26.8808 499.751L34.7793 507.648C37.7544 510.624 39.4121 514.563 39.4619 518.763L50.5761 507.648ZM50.5761 650.65C54.9309 646.296 54.9309 639.208 50.5761 634.854L39.4619 623.741C39.412 627.939 37.7544 631.878 34.7793 634.854L26.8808 642.753L34.7793 650.65C37.7544 653.626 39.4121 657.565 39.4619 661.765L50.5761 650.65ZM108.746 4.67969C114.984 10.9183 114.984 21.0691 108.746 27.3076L101.275 34.7793L82.0635 53.9922C75.8249 60.2308 65.6732 60.2308 59.4346 53.9922L40.2227 34.7793L32.751 27.3076C26.5124 21.069 26.5124 10.9183 32.751 4.67969C38.9896 -1.5589 49.1403 -1.5589 55.3789 4.67969L70.748 20.0498L86.1191 4.67969C89.2377 1.56115 93.3359 4.07941e-06 97.4326 4.25891e-06C101.529 4.07625e-05 105.628 1.56119 108.746 4.67969ZM108.746 114.186C114.984 120.424 114.984 130.575 108.746 136.813C102.507 143.052 92.3558 143.052 86.1172 136.813L70.748 121.443L55.3769 136.813C52.2585 139.932 48.1609 141.493 44.0644 141.493C39.9678 141.493 35.8695 139.932 32.751 136.813C26.5124 130.575 26.5124 120.424 32.751 114.186L40.2207 106.714L59.4336 87.501C65.6722 81.2627 75.823 81.2626 82.0615 87.501L108.746 114.186ZM108.746 147.68C114.984 153.918 114.984 164.069 108.746 170.308L101.275 177.779L82.0635 196.992C75.8249 203.231 65.6731 203.231 59.4346 196.992L40.2226 177.779L32.751 170.308C26.5124 164.069 26.5124 153.918 32.751 147.68C38.9896 141.441 49.1403 141.441 55.3789 147.68L70.748 163.05L86.1191 147.68C89.2377 144.561 93.3359 143 97.4326 143C101.529 143 105.628 144.561 108.746 147.68ZM108.746 257.186C114.984 263.424 114.984 273.575 108.746 279.813C102.507 286.052 92.3558 286.052 86.1172 279.813L70.748 264.443L55.3769 279.813C52.2585 282.932 48.1609 284.493 44.0644 284.493C39.9678 284.493 35.8695 282.932 32.751 279.813C26.5124 273.575 26.5124 263.424 32.751 257.186L40.2207 249.714L59.4336 230.501C65.6721 224.263 75.823 224.263 82.0615 230.501L108.746 257.186ZM108.746 291.172C114.984 297.41 114.984 307.561 108.746 313.8L101.275 321.271L82.0635 340.484C75.8249 346.723 65.6731 346.723 59.4346 340.484L40.2226 321.271L32.751 313.8C26.5124 307.561 26.5124 297.41 32.751 291.172C38.9896 284.933 49.1403 284.933 55.3789 291.172L70.748 306.542L86.1191 291.172C89.2377 288.053 93.3359 286.492 97.4326 286.492C101.529 286.492 105.628 288.053 108.746 291.172ZM108.746 400.678C114.984 406.916 114.984 417.067 108.746 423.306C102.507 429.544 92.3558 429.544 86.1172 423.306L70.748 407.936L55.3769 423.306C52.2585 426.424 48.1609 427.985 44.0644 427.985C39.9678 427.985 35.8695 426.424 32.751 423.306C26.5124 417.067 26.5124 406.916 32.751 400.678L40.2207 393.206L59.4336 373.993C65.6721 367.755 75.823 367.755 82.0615 373.993L108.746 400.678ZM108.746 433.684C114.984 439.922 114.984 450.073 108.746 456.312L101.275 463.783L82.0635 482.996C75.8249 489.235 65.6731 489.235 59.4345 482.996L40.2226 463.783L32.751 456.312C26.5124 450.073 26.5124 439.922 32.751 433.684C38.9896 427.445 49.1403 427.445 55.3789 433.684L70.748 449.054L86.1191 433.684C89.2377 430.565 93.3359 429.004 97.4326 429.004C101.529 429.004 105.628 430.565 108.746 433.684ZM108.746 543.189C114.984 549.428 114.984 559.579 108.746 565.817C102.507 572.056 92.3558 572.056 86.1172 565.817L70.748 550.447L55.3779 565.817C52.2595 568.936 48.161 570.497 44.0644 570.497C39.9678 570.497 35.8695 568.936 32.751 565.817C26.5124 559.579 26.5124 549.428 32.751 543.189L40.2207 535.718L59.4336 516.505C65.6721 510.267 75.823 510.267 82.0615 516.505L108.746 543.189ZM108.746 576.688C114.984 582.926 114.984 593.077 108.746 599.315L101.275 606.787L82.0634 626C75.8249 632.239 65.6731 632.239 59.4345 626L40.2226 606.787L32.751 599.315C26.5124 593.077 26.5124 582.926 32.751 576.688C38.9895 570.449 49.1403 570.449 55.3789 576.688L70.748 592.058L86.1191 576.688C89.2377 573.569 93.3359 572.008 97.4326 572.008C101.529 572.008 105.628 573.569 108.746 576.688ZM108.746 686.193C114.984 692.432 114.984 702.583 108.746 708.821C102.507 715.06 92.3558 715.06 86.1172 708.821L70.748 693.451L55.3779 708.821C52.2595 711.94 48.161 713.501 44.0644 713.501C39.9678 713.501 35.8695 711.94 32.7509 708.821C26.5124 702.583 26.5124 692.432 32.7509 686.193L40.2207 678.722L59.4336 659.509C65.6721 653.271 75.823 653.27 82.0615 659.509L108.746 686.193ZM59.4336 110.13C57.3249 108.02 54.5202 106.858 51.5361 106.858C48.5519 106.858 45.7469 108.02 43.6367 110.13L36.165 117.602C31.8104 121.956 31.8104 129.043 36.165 133.397C40.5213 137.752 47.6066 137.752 51.9629 133.397L67.332 118.028L59.4336 110.13ZM59.4336 253.13C57.3249 251.02 54.5202 249.858 51.5361 249.858C48.5519 249.858 45.7469 251.02 43.6367 253.13L36.165 260.602C31.8104 264.956 31.8105 272.043 36.165 276.397C40.5213 280.752 47.6066 280.752 51.9629 276.397L67.332 261.028L59.4336 253.13ZM59.4336 396.622C57.3249 394.512 54.5202 393.351 51.5361 393.351C48.5519 393.351 45.7469 394.512 43.6367 396.622L36.165 404.094C31.8104 408.448 31.8105 415.535 36.165 419.89C40.5213 424.244 47.6066 424.244 51.9629 419.89L67.332 404.521L59.4336 396.622ZM59.4336 539.134C57.3249 537.024 54.5202 535.862 51.5361 535.862C48.5519 535.862 45.7469 537.024 43.6367 539.134L36.165 546.605C31.8104 550.96 31.8104 558.047 36.165 562.401C40.5213 566.756 47.6066 566.756 51.9629 562.401L67.332 547.032L59.4336 539.134ZM59.4336 682.138C57.3249 680.028 54.5202 678.866 51.5361 678.866C48.5519 678.866 45.7469 680.027 43.6367 682.138L36.165 689.609C31.8104 693.964 31.8105 701.051 36.165 705.405C40.5213 709.76 47.6066 709.76 51.9629 705.405L67.332 690.036L59.4336 682.138ZM51.9629 8.09571C47.6081 3.74092 40.5218 3.74092 36.167 8.0957C31.8122 12.4505 31.8122 19.5368 36.167 23.8916L43.6387 31.3633C45.7474 33.4735 48.5519 34.6348 51.5361 34.6348C54.5202 34.6347 57.3244 33.4734 59.4346 31.3633L67.334 23.4648L51.9629 8.09571ZM51.9629 151.096C47.6081 146.741 40.5218 146.741 36.167 151.096C31.8122 155.451 31.8122 162.537 36.167 166.892L43.6387 174.363C45.7474 176.473 48.5519 177.635 51.5361 177.635C54.5202 177.635 57.3244 176.473 59.4346 174.363L67.334 166.465L51.9629 151.096ZM51.9629 294.588C47.6081 290.233 40.5218 290.233 36.167 294.588C31.8122 298.943 31.8122 306.029 36.167 310.384L43.6387 317.855C45.7474 319.966 48.5519 321.127 51.5361 321.127C54.5202 321.127 57.3244 319.966 59.4346 317.855L67.334 309.957L51.9629 294.588ZM51.9629 437.1C47.6081 432.745 40.5218 432.745 36.167 437.1C31.8122 441.454 31.8122 448.541 36.167 452.896L43.6387 460.367C45.7474 462.477 48.5519 463.639 51.5361 463.639C54.5202 463.639 57.3244 462.477 59.4346 460.367L67.334 452.469L51.9629 437.1ZM51.9629 580.104C47.6081 575.749 40.5218 575.749 36.167 580.104C31.8122 584.458 31.8122 591.545 36.167 595.899L43.6386 603.371C45.7474 605.481 48.5519 606.643 51.5361 606.643C54.5202 606.643 57.3244 605.481 59.4345 603.371L67.334 595.473L51.9629 580.104ZM89.7598 39.4619C85.562 39.4121 81.6226 37.7544 78.6475 34.7793L70.748 26.8809L62.8506 34.7793C59.8754 37.7544 55.9356 39.4121 51.7363 39.4619L62.8506 50.5762C67.2054 54.9309 74.2927 54.9309 78.6475 50.5762L89.7598 39.4619ZM78.6455 90.917C74.2908 86.5625 67.2044 86.5625 62.8496 90.917L51.7363 102.031C55.9341 102.081 59.8745 103.739 62.8496 106.714L70.748 114.612L78.6455 106.714C81.6206 103.739 85.5605 102.081 89.7598 102.031L78.6455 90.917ZM89.7598 182.462C85.562 182.412 81.6226 180.754 78.6475 177.779L70.748 169.881L62.8506 177.779C59.8754 180.754 55.9356 182.412 51.7363 182.462L62.8506 193.576C67.2054 197.931 74.2927 197.931 78.6475 193.576L89.7598 182.462ZM78.6455 233.917C74.2908 229.562 67.2044 229.563 62.8496 233.917L51.7363 245.031C55.9341 245.081 59.8745 246.739 62.8496 249.714L70.748 257.612L78.6455 249.714C81.6206 246.739 85.5605 245.081 89.7598 245.031L78.6455 233.917ZM89.7598 325.954C85.562 325.904 81.6225 324.247 78.6474 321.271L70.748 313.373L62.8506 321.271C59.8754 324.247 55.9356 325.904 51.7363 325.954L62.8506 337.068C67.2053 341.423 74.2927 341.423 78.6474 337.068L89.7598 325.954ZM78.6455 377.409C74.2908 373.055 67.2043 373.055 62.8496 377.409L51.7363 388.523C55.9341 388.573 59.8744 390.231 62.8496 393.206L70.748 401.104L78.6455 393.206C81.6206 390.231 85.5605 388.573 89.7597 388.523L78.6455 377.409ZM89.7597 468.466C85.562 468.416 81.6225 466.758 78.6474 463.783L70.748 455.885L62.8506 463.783C59.8754 466.758 55.9356 468.416 51.7363 468.466L62.8506 479.58C67.2054 483.935 74.2927 483.935 78.6474 479.58L89.7597 468.466ZM78.6455 519.921C74.2908 515.566 67.2043 515.566 62.8496 519.921L51.7363 531.035C55.9341 531.085 59.8744 532.743 62.8496 535.718L70.748 543.616L78.6455 535.718C81.6206 532.743 85.5605 531.085 89.7597 531.035L78.6455 519.921ZM89.7597 611.47C85.562 611.42 81.6225 609.762 78.6474 606.787L70.748 598.889L62.8506 606.787C59.8754 609.762 55.9356 611.42 51.7363 611.47L62.8506 622.584C67.2053 626.939 74.2926 626.939 78.6474 622.584L89.7597 611.47ZM78.6455 662.925C74.2908 658.57 67.2043 658.57 62.8496 662.925L51.7363 674.039C55.9341 674.089 59.8744 675.747 62.8496 678.722L70.748 686.62L78.6455 678.722C81.6206 675.747 85.5605 674.089 89.7597 674.039L78.6455 662.925ZM105.33 133.397C109.685 129.043 109.685 121.956 105.33 117.602L97.8584 110.13C95.7498 108.02 92.945 106.858 89.9609 106.858C86.9767 106.858 84.1717 108.02 82.0615 110.13L74.1631 118.028L89.5332 133.397C93.888 137.752 100.975 137.752 105.33 133.397ZM105.33 276.397C109.685 272.043 109.685 264.956 105.33 260.602L97.8584 253.13C95.7497 251.02 92.945 249.858 89.9609 249.858C86.9767 249.858 84.1717 251.02 82.0615 253.13L74.1631 261.028L89.5332 276.397C93.888 280.752 100.975 280.752 105.33 276.397ZM105.33 419.89C109.685 415.535 109.685 408.448 105.33 404.094L97.8584 396.622C95.7497 394.512 92.945 393.351 89.9609 393.351C86.9767 393.351 84.1717 394.512 82.0615 396.622L74.1631 404.521L89.5332 419.89C93.888 424.244 100.975 424.244 105.33 419.89ZM105.33 562.401C109.685 558.047 109.685 550.96 105.33 546.605L97.8584 539.134C95.7497 537.024 92.945 535.862 89.9609 535.862C86.9767 535.862 84.1717 537.024 82.0615 539.134L74.1631 547.032L89.5332 562.401C93.888 566.756 100.975 566.756 105.33 562.401ZM105.33 705.405C109.685 701.051 109.685 693.964 105.33 689.609L97.8584 682.138C95.7497 680.028 92.945 678.866 89.9609 678.866C86.9767 678.866 84.1717 680.027 82.0615 682.138L74.1631 690.036L89.5332 705.405C93.888 709.76 100.975 709.76 105.33 705.405ZM105.331 23.8916C109.686 19.5368 109.686 12.4505 105.331 8.09571C100.975 3.74092 93.8895 3.74092 89.5332 8.09571L74.1641 23.4648L82.0635 31.3633C84.1722 33.4735 86.9767 34.6348 89.9609 34.6348C92.945 34.6347 95.7492 33.4734 97.8594 31.3633L105.331 23.8916ZM105.331 166.892C109.686 162.537 109.686 155.45 105.331 151.096C100.975 146.741 93.8895 146.741 89.5332 151.096L74.1641 166.465L82.0635 174.363C84.1722 176.473 86.9767 177.635 89.9609 177.635C92.945 177.635 95.7492 176.473 97.8594 174.363L105.331 166.892ZM105.331 310.384C109.686 306.029 109.686 298.943 105.331 294.588C100.975 290.233 93.8895 290.233 89.5332 294.588L74.164 309.957L82.0635 317.855C84.1722 319.966 86.9767 321.127 89.9609 321.127C92.945 321.127 95.7492 319.966 97.8594 317.855L105.331 310.384ZM105.331 452.896C109.686 448.541 109.686 441.454 105.331 437.1C100.975 432.745 93.8895 432.745 89.5332 437.1L74.164 452.469L82.0635 460.367C84.1722 462.477 86.9767 463.639 89.9609 463.639C92.945 463.639 95.7492 462.477 97.8594 460.367L105.331 452.896ZM105.331 595.899C109.686 591.545 109.686 584.458 105.331 580.104C100.975 575.749 93.8895 575.749 89.5332 580.104L74.164 595.473L82.0635 603.371C84.1722 605.481 86.9767 606.643 89.9609 606.643C92.945 606.643 95.7492 605.481 97.8593 603.371L105.331 595.899ZM141.495 97.4307C141.495 101.527 139.934 105.626 136.815 108.744C130.577 114.983 120.426 114.983 114.187 108.744L106.716 101.274L87.5029 82.0615C81.2647 75.823 81.2646 65.6721 87.5029 59.4336L114.187 32.749C120.426 26.5107 130.577 26.5108 136.815 32.749C143.054 38.9876 143.054 49.1393 136.815 55.3779L121.445 70.7471L136.815 86.1182C139.934 89.2366 141.495 93.3342 141.495 97.4307ZM141.495 240.431C141.495 244.527 139.934 248.626 136.815 251.744C130.577 257.983 120.426 257.983 114.187 251.744L106.716 244.274L87.5029 225.062C81.2647 218.823 81.2647 208.672 87.5029 202.434L114.187 175.749C120.426 169.511 130.577 169.511 136.815 175.749C143.054 181.988 143.054 192.139 136.815 198.378L121.445 213.747L136.815 229.118C139.934 232.237 141.495 236.334 141.495 240.431ZM141.495 383.923C141.495 388.02 139.934 392.118 136.815 395.236C130.577 401.475 120.426 401.475 114.187 395.236L106.716 387.767L87.5029 368.554C81.2647 362.315 81.2647 352.164 87.5029 345.926L114.187 319.241C120.426 313.003 130.577 313.003 136.815 319.241C143.054 325.48 143.054 335.632 136.815 341.87L121.445 357.239L136.815 372.61C139.934 375.729 141.495 379.826 141.495 383.923ZM141.495 526.435C141.495 530.531 139.934 534.63 136.815 537.748C130.577 543.987 120.426 543.987 114.187 537.748L106.716 530.278L87.5029 511.065C81.2647 504.827 81.2646 494.676 87.5029 488.438L114.187 461.753C120.426 455.515 130.577 455.515 136.815 461.753C143.054 467.992 143.054 478.143 136.815 484.382L121.445 499.751L136.815 515.122C139.934 518.24 141.495 522.338 141.495 526.435ZM141.495 669.437C141.495 673.533 139.934 677.631 136.815 680.75C130.577 686.989 120.426 686.989 114.187 680.75L106.716 673.28L87.5029 654.067C81.2647 647.829 81.2646 637.678 87.5029 631.439L114.187 604.755C120.426 598.516 130.577 598.517 136.815 604.755C143.054 610.993 143.054 621.145 136.815 627.384L121.445 642.753L136.815 658.123C139.934 661.241 141.495 665.34 141.495 669.437ZM106.716 62.8496C103.741 59.8745 102.083 55.9346 102.033 51.7354L90.9189 62.8496C86.5645 67.2043 86.5645 74.2908 90.9189 78.6455L102.033 89.7588C102.083 85.561 103.741 81.6207 106.716 78.6455L114.614 70.7471L106.716 62.8496ZM106.716 205.85C103.741 202.875 102.083 198.935 102.033 194.735L90.9189 205.85C86.5645 210.204 86.5645 217.291 90.9189 221.646L102.033 232.759C102.083 228.561 103.741 224.621 106.716 221.646L114.614 213.747L106.716 205.85ZM106.716 349.342C103.741 346.367 102.083 342.427 102.033 338.228L90.9189 349.342C86.5645 353.697 86.5645 360.783 90.9189 365.138L102.033 376.251C102.083 372.053 103.741 368.113 106.716 365.138L114.614 357.239L106.716 349.342ZM106.716 491.854C103.741 488.878 102.083 484.939 102.033 480.739L90.9189 491.854C86.5645 496.208 86.5645 503.295 90.9189 507.649L102.033 518.763C102.083 514.565 103.741 510.625 106.716 507.649L114.614 499.751L106.716 491.854ZM106.716 634.855C103.741 631.88 102.083 627.94 102.033 623.741L90.9189 634.855C86.5645 639.21 86.5645 646.297 90.9189 650.651L102.033 661.765C102.083 657.567 103.741 653.627 106.716 650.651L114.614 642.753L106.716 634.855ZM133.399 51.9619C137.754 47.6071 137.754 40.5198 133.399 36.165C129.045 31.8106 121.958 31.8105 117.604 36.165L110.132 43.6367C108.022 45.7454 106.86 48.5501 106.86 51.5342C106.86 54.5184 108.022 57.3234 110.132 59.4336L118.03 67.332L133.399 51.9619ZM133.399 105.33C137.754 100.974 137.754 93.8885 133.399 89.5322L118.03 74.1631L110.132 82.0615C108.022 84.1702 106.86 86.9749 106.86 89.959C106.86 92.9432 108.022 95.7482 110.132 97.8584L117.604 105.33C121.958 109.685 129.045 109.685 133.399 105.33ZM133.399 194.962C137.754 190.607 137.754 183.52 133.399 179.165C129.045 174.811 121.958 174.81 117.604 179.165L110.132 186.637C108.022 188.745 106.86 191.55 106.86 194.534C106.86 197.518 108.022 200.323 110.132 202.434L118.03 210.332L133.399 194.962ZM133.399 248.33C137.754 243.974 137.754 236.889 133.399 232.532L118.03 217.163L110.132 225.062C108.022 227.17 106.86 229.975 106.86 232.959C106.86 235.943 108.022 238.748 110.132 240.858L117.604 248.33C121.958 252.685 129.045 252.685 133.399 248.33ZM133.399 338.454C137.754 334.099 137.754 327.012 133.399 322.657C129.045 318.303 121.958 318.303 117.604 322.657L110.132 330.129C108.022 332.238 106.86 335.042 106.86 338.026C106.86 341.011 108.022 343.816 110.132 345.926L118.03 353.824L133.399 338.454ZM133.399 391.822C137.754 387.466 137.754 380.381 133.399 376.024L118.03 360.655L110.132 368.554C108.022 370.662 106.86 373.467 106.86 376.451C106.86 379.435 108.022 382.24 110.132 384.351L117.603 391.822C121.958 396.177 129.045 396.177 133.399 391.822ZM133.4 480.966C137.755 476.611 137.755 469.524 133.4 465.169C129.046 460.814 121.958 460.814 117.603 465.169L110.132 472.641C108.022 474.749 106.86 477.554 106.86 480.538C106.86 483.522 108.022 486.327 110.132 488.438L118.03 496.336L133.4 480.966ZM133.4 534.334C137.755 529.978 137.755 522.892 133.4 518.536L118.03 503.167L110.132 511.065C108.022 513.174 106.86 515.979 106.86 518.963C106.86 521.947 108.022 524.752 110.132 526.862L117.603 534.334C121.958 538.689 129.046 538.689 133.4 534.334ZM133.4 623.968C137.755 619.613 137.755 612.526 133.4 608.171C129.046 603.816 121.958 603.816 117.603 608.171L110.132 615.643C108.022 617.751 106.86 620.556 106.86 623.54C106.86 626.524 108.022 629.329 110.132 631.439L118.03 639.338L133.4 623.968ZM133.4 677.336C137.755 672.98 137.755 665.894 133.4 661.538L118.03 646.169L110.132 654.067C108.022 656.176 106.86 658.981 106.86 661.965C106.86 664.949 108.022 667.754 110.132 669.864L117.603 677.336C121.958 681.691 129.046 681.691 133.4 677.336Z" fill="#F9FAFB"/>
</mask>
<g mask="url(#mask0_1_4701)">
<g opacity="0.4" filter="url(#filter0_f_1_4701)">
<circle cx="32" cy="32" r="32" transform="matrix(-1 0 0 1 103.003 73)" fill="#49B3F3"/>
</g>
<g opacity="0.4" filter="url(#filter1_f_1_4701)">
<circle cx="32" cy="32" r="32" transform="matrix(-1 0 0 1 103.003 235)" fill="#49B3F3"/>
</g>
<g filter="url(#filter2_f_1_4701)">
<circle cx="41" cy="41" r="41" transform="matrix(-1 0 0 1 112.001 131)" fill="#1004A4"/>
</g>
<g opacity="0.24" filter="url(#filter3_f_1_4701)">
<ellipse cx="41" cy="41.5" rx="41" ry="41.5" transform="matrix(-1 0 0 1 112.001 318)" fill="#1004A4"/>
</g>
<g filter="url(#filter4_f_1_4701)">
<ellipse cx="41" cy="41.5" rx="41" ry="41.5" transform="matrix(-1 0 0 1 112.001 527)" fill="#EAEEF0"/>
</g>
<g filter="url(#filter5_f_1_4701)">
<ellipse cx="23" cy="22.5" rx="23" ry="22.5" transform="matrix(-1 0 0 1 94.001 263)" fill="#49B3F3"/>
</g>
<g opacity="0.64" filter="url(#filter6_f_1_4701)">
<ellipse cx="23" cy="22.5" rx="23" ry="22.5" transform="matrix(-1 0 0 1 94.001 195)" fill="#E12A80"/>
</g>
</g>
<defs>
<filter id="filter0_f_1_4701" x="-80.9971" y="-47" width="304" height="304" filterUnits="userSpaceOnUse" color-interpolation-filters="sRGB">
<feFlood flood-opacity="0" result="BackgroundImageFix"/>
<feBlend mode="normal" in="SourceGraphic" in2="BackgroundImageFix" result="shape"/>
<feGaussianBlur stdDeviation="60" result="effect1_foregroundBlur_1_4701"/>
</filter>
<filter id="filter1_f_1_4701" x="-80.9971" y="115" width="304" height="304" filterUnits="userSpaceOnUse" color-interpolation-filters="sRGB">
<feFlood flood-opacity="0" result="BackgroundImageFix"/>
<feBlend mode="normal" in="SourceGraphic" in2="BackgroundImageFix" result="shape"/>
<feGaussianBlur stdDeviation="60" result="effect1_foregroundBlur_1_4701"/>
</filter>
<filter id="filter2_f_1_4701" x="-49.999" y="51" width="242" height="242" filterUnits="userSpaceOnUse" color-interpolation-filters="sRGB">
<feFlood flood-opacity="0" result="BackgroundImageFix"/>
<feBlend mode="normal" in="SourceGraphic" in2="BackgroundImageFix" result="shape"/>
<feGaussianBlur stdDeviation="40" result="effect1_foregroundBlur_1_4701"/>
</filter>
<filter id="filter3_f_1_4701" x="-89.999" y="198" width="322" height="323" filterUnits="userSpaceOnUse" color-interpolation-filters="sRGB">
<feFlood flood-opacity="0" result="BackgroundImageFix"/>
<feBlend mode="normal" in="SourceGraphic" in2="BackgroundImageFix" result="shape"/>
<feGaussianBlur stdDeviation="60" result="effect1_foregroundBlur_1_4701"/>
</filter>
<filter id="filter4_f_1_4701" x="-89.999" y="407" width="322" height="323" filterUnits="userSpaceOnUse" color-interpolation-filters="sRGB">
<feFlood flood-opacity="0" result="BackgroundImageFix"/>
<feBlend mode="normal" in="SourceGraphic" in2="BackgroundImageFix" result="shape"/>
<feGaussianBlur stdDeviation="60" result="effect1_foregroundBlur_1_4701"/>
</filter>
<filter id="filter5_f_1_4701" x="-15.999" y="199" width="174" height="173" filterUnits="userSpaceOnUse" color-interpolation-filters="sRGB">
<feFlood flood-opacity="0" result="BackgroundImageFix"/>
<feBlend mode="normal" in="SourceGraphic" in2="BackgroundImageFix" result="shape"/>
<feGaussianBlur stdDeviation="32" result="effect1_foregroundBlur_1_4701"/>
</filter>
<filter id="filter6_f_1_4701" x="-31.999" y="115" width="206" height="205" filterUnits="userSpaceOnUse" color-interpolation-filters="sRGB">
<feFlood flood-opacity="0" result="BackgroundImageFix"/>
<feBlend mode="normal" in="SourceGraphic" in2="BackgroundImageFix" result="shape"/>
<feGaussianBlur stdDeviation="40" result="effect1_foregroundBlur_1_4701"/>
</filter>
</defs>
</svg>
